<?xml version="1.0" encoding="UTF-8" standalone="no"?>
<!DOCTYPE svg PUBLIC "-//W3C//DTD SVG 1.1//EN" "http://www.w3.org/Graphics/SVG/1.1/DTD/svg11.dtd">
<svg viewBox="0 0 313 320" version="1.1" xmlns="http://www.w3.org/2000/svg" xmlns:xlink="http://www.w3.org/1999/xlink" xml:space="preserve" xmlns:serif="http://www.serif.com/" style="fill-rule:evenodd;clip-rule:evenodd;stroke-linejoin:round;stroke-miterlimit:2;">
    <g transform="matrix(1,0,0,1,-571.793,-344.054)">
        <g transform="matrix(1,0,0,1,848.353,379.422)">
            <path d="M0,189.918C-67.389,197.046 -131.435,212.253 -197.487,225.602C-201.456,214.102 -205.453,202.36 -209.557,190.655C-225.357,145.586 -241.11,100.5 -257.057,55.482C-262.574,39.907 -268.721,24.556 -274.354,9.021C-278.287,-1.826 -277.684,-3.766 -266.57,-6.715C-244.087,-12.682 -221.661,-19.779 -198.733,-22.945C-163.263,-27.844 -127.405,-29.997 -91.685,-32.991C-77.05,-34.218 -62.348,-34.666 -47.671,-35.344C-40.306,-35.684 -35.227,-32.44 -33.351,-25.082C-26.924,0.121 -20.412,25.302 -14.21,50.56C-3.614,93.716 -3.171,138.026 0.326,181.983C0.559,184.914 0.096,187.9 0,189.918" style="fill-rule:nonzero;"/>
        </g>
        <g transform="matrix(1,0,0,1,884,649.937)">
            <path d="M0,-54.582C-2.004,-53.008 -4.892,-49.151 -8.571,-48.12C-24.993,-43.519 -41.562,-39.359 -58.227,-35.728C-80.906,-30.786 -103.845,-26.994 -126.451,-21.755C-155.324,-15.062 -184.059,-7.723 -212.687,-0.046C-225.088,3.279 -237.14,7.973 -249.22,12.397C-253.689,14.034 -256.561,14.057 -260.339,10.148C-279.872,-10.052 -279.791,-11.308 -253.294,-22.202C-224.811,-33.914 -194.773,-39.732 -164.703,-45.536C-148.809,-48.603 -133.257,-53.611 -117.297,-56.133C-96.186,-59.468 -74.831,-61.278 -53.57,-63.644C-39.883,-65.166 -26.185,-66.61 -12.473,-67.888C-4.415,-68.639 -0.314,-64.937 0,-54.582" style="fill-rule:nonzero;"/>
        </g>
        <g transform="matrix(1,0,0,1,692.768,393.649)">
            <path d="M0,88.986C0,82.742 0.716,76.836 2.095,71.326C-2.206,65.416 -4.655,56.926 -4.655,46.257C-4.655,24.843 6.951,11.93 21.825,11.93C29.345,11.93 34.412,15.036 39.807,19.94L53.046,5.065C45.854,-2.291 34.738,-8.829 21.499,-8.829C-5.963,-8.829 -29.338,11.767 -29.338,47.074C-29.338,73.488 -17.05,90.633 0.485,97.815C0.171,94.961 0,92.02 0,88.986" style="fill:white;fill-rule:nonzero;"/>
        </g>
        <g transform="matrix(1,0,0,1,747.448,479.622)">
            <path d="M0,0.005L-13.239,-14.543C-16.408,-11.078 -19.94,-8.34 -24.192,-6.713C-24.698,-3.933 -24.968,-0.957 -24.968,2.195C-24.968,6.726 -24.497,10.859 -23.605,14.548C-14.541,12.465 -6.477,7.561 0,0.005" style="fill:white;fill-rule:nonzero;"/>
        </g>
        <g transform="matrix(1,0,0,1,746.119,537.231)">
            <path d="M0,-110.5C13.24,-110.5 24.355,-103.961 31.548,-96.605L18.308,-81.731C12.913,-86.634 7.846,-89.74 0.326,-89.74C-14.548,-89.74 -26.153,-76.827 -26.153,-55.414C-26.153,-33.51 -15.856,-20.76 -0.327,-20.76C8.5,-20.76 14.712,-24.52 19.942,-30.24L33.183,-15.692C24.355,-5.395 12.587,0 -0.654,0C-28.279,0 -50.837,-18.798 -50.837,-54.596C-50.837,-89.904 -27.462,-110.5 0,-110.5" style="fill:white;fill-rule:nonzero;"/>
        </g>
        <g transform="matrix(1,0,0,1,746.119,537.231)">
            <path d="M0,-110.5C13.24,-110.5 24.355,-103.961 31.548,-96.605L18.308,-81.731C12.913,-86.634 7.846,-89.74 0.326,-89.74C-14.548,-89.74 -26.153,-76.827 -26.153,-55.414C-26.153,-33.51 -15.856,-20.76 -0.327,-20.76C8.5,-20.76 14.712,-24.52 19.942,-30.24L33.183,-15.692C24.355,-5.395 12.587,0 -0.654,0C-28.279,0 -50.837,-18.798 -50.837,-54.596C-50.837,-89.904 -27.462,-110.5 0,-110.5" style="fill:white;fill-rule:nonzero;"/>
        </g>
    </g>
</svg>
