<?xml version="1.0" encoding="UTF-8" standalone="no"?>
<!DOCTYPE svg PUBLIC "-//W3C//DTD SVG 1.1//EN" "http://www.w3.org/Graphics/SVG/1.1/DTD/svg11.dtd">
<svg viewBox="0 0 741 225" version="1.1" xmlns="http://www.w3.org/2000/svg" xmlns:xlink="http://www.w3.org/1999/xlink" xml:space="preserve" xmlns:serif="http://www.serif.com/" style="fill-rule:evenodd;clip-rule:evenodd;stroke-linejoin:round;stroke-miterlimit:2;">
    <g transform="matrix(1,0,0,1,-129.999,-323.517)">
        <g transform="matrix(1,0,0,1,181.06,548.482)">
            <path d="M0,-110.987C13.299,-110.987 24.464,-104.42 31.687,-97.032L18.389,-82.09C12.971,-87.016 7.881,-90.135 0.328,-90.135C-14.612,-90.135 -26.269,-77.165 -26.269,-55.657C-26.269,-33.657 -15.926,-20.85 -0.328,-20.85C8.538,-20.85 14.777,-24.626 20.031,-30.373L33.33,-15.761C24.464,-5.417 12.642,0 -0.657,0C-28.404,0 -51.061,-18.881 -51.061,-54.836C-51.061,-90.3 -27.583,-110.987 0,-110.987" style="fill:rgb(29,29,27);fill-rule:nonzero;"/>
        </g>
        <g transform="matrix(1,0,0,1,217.348,546.512)">
            <path d="M0,-107.046L24.299,-107.046L24.299,-65.837L61.24,-65.837L61.24,-107.046L85.375,-107.046L85.375,0L61.24,0L61.24,-44.657L24.299,-44.657L24.299,0L0,0L0,-107.046Z" style="fill:rgb(29,29,27);fill-rule:nonzero;"/>
        </g>
        <g transform="matrix(1,0,0,1,360.192,483.795)">
            <path d="M0,18.39L-2.626,8.538C-5.582,-2.134 -8.373,-14.777 -11.328,-25.941L-11.985,-25.941C-14.447,-14.611 -17.403,-2.134 -20.358,8.538L-22.985,18.39L0,18.39ZM4.926,37.271L-27.911,37.271L-34.478,62.718L-59.105,62.718L-25.448,-44.328L3.448,-44.328L37.105,62.718L11.493,62.718L4.926,37.271Z" style="fill:rgb(29,29,27);fill-rule:nonzero;"/>
        </g>
        <g transform="matrix(1,0,0,1,433.094,494.961)">
            <path d="M0,-3.942C13.299,-3.942 19.703,-9.853 19.703,-21.017C19.703,-32.181 12.807,-36.285 0,-36.285L-13.298,-36.285L-13.298,-3.942L0,-3.942ZM-37.598,-55.494L1.478,-55.494C24.792,-55.494 43.345,-46.958 43.345,-21.017C43.345,4.103 24.135,15.269 1.478,15.269L-13.298,15.269L-13.298,51.552L-37.598,51.552L-37.598,-55.494Z" style="fill:rgb(29,29,27);fill-rule:nonzero;"/>
        </g>
        <g transform="matrix(1,0,0,1,527.831,548.482)">
            <path d="M0,-110.987C13.299,-110.987 24.463,-104.42 31.688,-97.032L18.39,-82.09C12.971,-87.016 7.882,-90.135 0.328,-90.135C-14.611,-90.135 -26.27,-77.165 -26.27,-55.657C-26.27,-33.657 -15.925,-20.85 -0.328,-20.85C8.538,-20.85 14.776,-24.626 20.03,-30.373L33.329,-15.761C24.463,-5.417 12.643,0 -0.656,0C-28.404,0 -51.061,-18.881 -51.061,-54.836C-51.061,-90.3 -27.583,-110.987 0,-110.987" style="fill:rgb(29,29,27);fill-rule:nonzero;"/>
        </g>
        <g transform="matrix(1,0,0,1,719.438,493.482)">
            <path d="M0,-0.985C0,-22.329 -9.194,-35.134 -23.807,-35.134C-38.255,-35.134 -47.613,-22.329 -47.613,-0.985C-47.613,20.523 -38.255,34.15 -23.807,34.15C-9.194,34.15 0,20.523 0,-0.985M-72.404,-0.985C-72.404,-35.956 -52.538,-55.986 -23.807,-55.986C5.091,-55.986 24.791,-35.791 24.791,-0.985C24.791,33.985 5.091,55.001 -23.807,55.001C-52.538,55.001 -72.404,33.985 -72.404,-0.985" style="fill:rgb(29,29,27);fill-rule:nonzero;"/>
        </g>
        <g transform="matrix(1,0,0,1,740.953,546.512)">
            <path d="M0,-107.046L24.791,-107.046L32.18,-56.97C33.657,-45.806 35.136,-34.478 36.612,-23.149L37.27,-23.149C39.239,-34.478 41.374,-45.806 43.509,-56.97L55.001,-107.046L75.523,-107.046L87.181,-56.97C89.315,-46.134 91.45,-34.642 93.584,-23.149L94.241,-23.149C95.554,-34.642 97.032,-45.971 98.51,-56.97L105.898,-107.046L129.047,-107.046L110.003,0L79.629,0L69.121,-48.597C67.479,-56.807 66.001,-65.508 64.853,-73.388L64.196,-73.388C62.881,-65.508 61.568,-56.807 59.927,-48.597L49.747,0L19.865,0L0,-107.046Z" style="fill:rgb(29,29,27);fill-rule:nonzero;"/>
        </g>
        <g transform="matrix(1,0,0,1,600.731,497.259)">
            <path d="M0,-8.538L-12.313,-8.538L-12.313,-38.583L0,-38.583C12.643,-38.583 19.537,-34.972 19.537,-24.465C19.537,-13.957 12.643,-8.538 0,-8.538M43.344,-24.465C43.344,-41.149 35.298,-50.282 23.371,-54.593C23.325,-54.483 23.277,-54.374 23.231,-54.265C22.1,-51.542 20.007,-49.888 17.985,-48.286L17.83,-48.163C15.975,-46.694 13.821,-45.813 11.249,-45.467C10.941,-45.426 10.581,-45.307 10.2,-45.18C9.554,-44.965 9.206,-44.604 9.116,-44.072C9.013,-43.464 9.282,-42.736 9.745,-42.378C9.952,-42.219 10.142,-42.034 10.327,-41.844L10.484,-41.686C10.922,-41.264 11.061,-40.617 10.833,-40.053C10.604,-39.488 10.057,-39.117 9.447,-39.117L7.939,-39.117C7.826,-39.117 7.714,-39.13 7.604,-39.155L7.274,-39.234C7.066,-39.285 6.857,-39.336 6.646,-39.374C5.188,-39.64 4.052,-40.459 3.531,-41.627C3.047,-42.708 3.159,-43.966 3.84,-45.078C4.103,-45.505 4.418,-45.924 4.782,-46.33C3.983,-46.296 3.182,-46.267 2.381,-46.246C1.424,-46.223 0.636,-45.801 0.221,-45.089C-0.192,-44.381 -0.174,-43.493 0.275,-42.652C0.382,-42.45 0.476,-42.243 0.594,-41.974L0.763,-41.592C1.031,-41.004 0.89,-40.311 0.413,-39.873C0.13,-39.615 -0.232,-39.48 -0.597,-39.48C-0.848,-39.48 -1.1,-39.543 -1.329,-39.673C-3.951,-41.148 -4.849,-42.828 -4.528,-45.661C-4.28,-47.83 -2.945,-49.535 -0.768,-50.459C-0.015,-50.779 0.741,-50.999 1.497,-51.154C1.268,-51.236 1.037,-51.309 0.807,-51.371C-0.172,-51.64 -0.893,-51.76 -1.533,-51.76C-2.418,-51.76 -3.145,-51.519 -3.818,-51.004C-4.087,-50.8 -4.406,-50.697 -4.726,-50.697C-5.076,-50.697 -5.426,-50.82 -5.708,-51.065C-6.241,-51.531 -6.376,-52.309 -6.025,-52.927C-5.712,-53.484 -5.321,-54.114 -4.67,-54.568C-3.016,-55.722 -1.212,-56.284 0.842,-56.284C2.058,-56.284 3.379,-56.082 4.882,-55.668C6.651,-55.183 8.093,-54.955 9.415,-54.955C11.114,-54.955 12.625,-55.343 14.032,-56.141C14.368,-56.331 14.688,-56.538 14.997,-56.757C10.891,-57.469 6.512,-57.792 1.97,-57.792L0.597,-57.792C-1.137,-56.124 -3.31,-55.118 -5.993,-54.745C-6.814,-54.631 -7.68,-54.435 -8.642,-54.146C-10.547,-53.572 -10.777,-53.253 -10.693,-51.311L-10.555,-48.122L-13.092,-50.06C-14.273,-50.961 -14.876,-51.993 -14.882,-53.125C-14.886,-53.846 -14.643,-54.52 -14.259,-55.142C-15.012,-55.142 -15.624,-55.112 -16.187,-55.05C-18.128,-54.837 -18.727,-53.36 -18.911,-52.501L-19.504,-49.731L-21.454,-51.783C-22.062,-52.422 -22.339,-53.33 -22.233,-54.336C-22.105,-55.569 -21.411,-56.758 -20.42,-57.439C-20.227,-57.573 -20.024,-57.671 -19.828,-57.792L-36.613,-57.792L-36.613,49.254L-12.313,49.254L-12.313,10.671L0.821,10.671L21.344,49.254L48.435,49.254L24.298,6.402C35.627,1.313 43.344,-8.703 43.344,-24.465" style="fill:rgb(29,29,27);fill-rule:nonzero;"/>
        </g>
        <g transform="matrix(1,0,0,1,582.852,362.646)">
            <path d="M0,0.029C0.821,0.258 1.393,0.418 2.247,0.656C2.099,0.067 2.008,-0.293 1.924,-0.627C1.267,-0.403 0.737,-0.222 0,0.029" style="fill:rgb(29,29,27);fill-rule:nonzero;"/>
        </g>
        <g transform="matrix(1,0,0,1,569.977,384.208)">
            <path d="M0,-0.373C-0.754,-2.886 -1.379,-5.439 -2.193,-7.932C-2.498,-8.862 -2.658,-9.532 -1.811,-10.238C0.391,-12.071 -0.631,-16.479 -3.455,-17.716C-5.159,-18.462 -6.963,-18.381 -8.707,-17.933C-11.361,-17.251 -14.04,-13.784 -12.238,-10.501C-10.724,-7.741 -7.883,-6.729 -4.625,-8.065C-4.611,-7.92 -4.585,-7.785 -4.587,-7.65C-4.62,-3.967 -4.656,-0.293 -3.587,3.3C-3.393,3.954 -3.412,4.735 -4.313,5.27C-5.345,5.881 -5.327,7.085 -5.228,8.165C-5.131,9.224 -4.212,9.404 -3.419,9.712C-3.141,9.819 -2.749,9.993 -2.68,10.219C-2.263,11.578 -1.996,12.985 -1.537,14.328C-1.098,15.613 -0.485,16.838 0.051,18.089C0.257,18.075 0.464,18.062 0.67,18.047C0.865,17.516 1.196,16.993 1.232,16.45C1.359,14.524 1.39,12.592 1.45,10.662C1.479,9.769 1.212,8.789 2.281,8.235C2.428,8.16 2.505,7.871 2.537,7.669C2.926,5.288 2.337,3.169 0.86,1.263C0.487,0.782 0.174,0.208 0,-0.373" style="fill:rgb(29,29,27);fill-rule:nonzero;"/>
        </g>
        <g transform="matrix(1,0,0,1,564.415,392.687)">
            <path d="M0,-2.4C0.401,-3.471 -0.468,-3.721 -1.112,-3.98C-1.872,-4.284 -2.438,-3.927 -2.611,-3.104C-2.749,-2.446 -2.835,-1.777 -2.944,-1.113C-2.895,0.671 -2.475,1.429 -1.138,1.789C-0.785,1.884 -0.31,1.739 0.03,1.556C0.161,1.485 0.171,0.957 0.062,0.715C-0.405,-0.327 -0.392,-1.357 0,-2.4" style="fill:rgb(29,29,27);fill-rule:nonzero;"/>
        </g>
        <g transform="matrix(1,0,0,1,582.852,450.134)">
            <path d="M0,-87.459C0.737,-87.71 1.267,-87.891 1.924,-88.115C2.008,-87.781 2.099,-87.421 2.247,-86.832C1.393,-87.07 0.821,-87.23 0,-87.459M-10.338,-58.257C-10.37,-58.055 -10.447,-57.766 -10.594,-57.69C-11.663,-57.137 -11.396,-56.157 -11.425,-55.264C-11.485,-53.334 -11.516,-51.401 -11.643,-49.476C-11.679,-48.933 -12.01,-48.41 -12.205,-47.878C-12.411,-47.864 -12.618,-47.851 -12.824,-47.836C-13.36,-49.088 -13.973,-50.313 -14.412,-51.598C-14.871,-52.94 -15.138,-54.348 -15.555,-55.707C-15.624,-55.933 -16.016,-56.106 -16.294,-56.214C-17.087,-56.522 -18.006,-56.702 -18.103,-57.761C-18.202,-58.841 -18.22,-60.044 -17.188,-60.656C-16.287,-61.19 -16.268,-61.972 -16.462,-62.626C-17.531,-66.219 -17.495,-69.893 -17.462,-73.576C-17.46,-73.71 -17.486,-73.846 -17.5,-73.991C-20.758,-72.655 -23.599,-73.667 -25.113,-76.427C-26.915,-79.709 -24.236,-83.177 -21.582,-83.859C-19.838,-84.307 -18.034,-84.388 -16.33,-83.642C-13.506,-82.405 -12.484,-77.997 -14.686,-76.164C-15.533,-75.458 -15.373,-74.788 -15.068,-73.857C-14.254,-71.365 -13.629,-68.812 -12.875,-66.299C-12.701,-65.718 -12.388,-65.144 -12.015,-64.663C-10.538,-62.756 -9.949,-60.638 -10.338,-58.257M-18.407,-55.892C-18.747,-55.709 -19.223,-55.563 -19.575,-55.659C-20.912,-56.019 -21.332,-56.777 -21.382,-58.561C-21.272,-59.225 -21.187,-59.894 -21.049,-60.552C-20.876,-61.375 -20.31,-61.732 -19.55,-61.427C-18.905,-61.169 -18.036,-60.918 -18.437,-59.848C-18.829,-58.804 -18.843,-57.774 -18.375,-56.732C-18.267,-56.491 -18.276,-55.963 -18.407,-55.892M82.29,-24.173C84.666,-20.792 87.927,-18.416 91.453,-16.373C91.833,-16.154 92.279,-16.05 92.89,-15.819C91.232,-26.59 86.234,-35.291 78.147,-42.5C79.863,-42.214 81.282,-41.935 82.712,-41.749C85.844,-41.339 89.111,-43.104 89.721,-45.658C90.337,-48.239 89.977,-50.647 88.229,-52.839C86.32,-55.23 83.768,-56.458 80.996,-57.411C79.042,-58.083 77.061,-58.034 75.067,-57.658C74.854,-57.618 74.658,-57.481 74.455,-57.389C74.759,-57.087 75.056,-57.044 75.338,-56.953C76.146,-56.69 77.093,-56.592 77.728,-56.098C79.542,-54.687 81.342,-53.108 82.12,-50.918C82.563,-49.671 82.486,-48.075 82.154,-46.76C81.766,-45.224 80.237,-44.642 78.466,-45.126C76.96,-45.538 75.447,-46.042 74.063,-46.751C72.55,-47.526 71.312,-48.704 70.552,-50.516C72.073,-49.757 73.117,-48.434 74.903,-48.347C74.776,-48.639 74.733,-48.815 74.634,-48.952C74.214,-49.532 73.843,-50.166 73.336,-50.661C69.574,-54.34 65.807,-58.014 61.989,-61.636C60.773,-62.79 59.226,-63.625 58.136,-64.873C55.244,-68.186 51.985,-71.066 48.447,-73.641C44.945,-76.19 41.398,-78.678 37.857,-81.172C34.553,-83.5 31.36,-86.025 27.883,-88.06C22.834,-91.014 17.372,-93.013 11.5,-93.696C9.133,-93.972 6.787,-93.941 4.492,-93.217C2.427,-92.565 1.523,-91.084 1.861,-88.982C1.886,-88.828 1.819,-88.659 1.824,-88.691C0.344,-88.964 -1.062,-89.327 -2.49,-89.456C-3.938,-89.586 -5.405,-89.485 -6.886,-89.485C-6.743,-89.737 -6.604,-89.981 -6.413,-90.318C-7.109,-90.368 -7.68,-90.456 -8.245,-90.434C-8.791,-90.412 -9.332,-90.276 -10.179,-90.143C-9.757,-90.48 -9.563,-90.611 -9.398,-90.772C-9.238,-90.926 -9.107,-91.11 -8.963,-91.281C-9.029,-91.391 -9.095,-91.501 -9.161,-91.612C-16.164,-92.112 -21.975,-89.856 -26.134,-83.857C-27.699,-85.728 -29.551,-86.79 -31.251,-86.644C-35.148,-86.31 -38.597,-84.938 -41.464,-82.177C-44.676,-79.085 -47.296,-75.61 -48.868,-71.403L-48.868,-69.681C-48.769,-69.385 -48.669,-69.088 -48.544,-68.719C-47.26,-70.474 -45.514,-71.281 -43.412,-71.456C-41.364,-71.625 -39.468,-71.348 -37.616,-70.325C-34.392,-68.544 -31.133,-66.801 -27.776,-65.29C-25.772,-64.388 -23.555,-63.959 -21.433,-63.316C-20.658,-63.082 -19.858,-62.902 -19.122,-62.578C-18.773,-62.424 -18.55,-61.989 -18.421,-61.479C-18.632,-61.594 -18.846,-61.705 -19.054,-61.825C-19.997,-62.367 -21.243,-61.99 -21.472,-60.945C-21.72,-59.814 -21.905,-58.611 -21.791,-57.472C-21.582,-55.378 -19.666,-54.479 -17.769,-55.429C-17.684,-55.472 -17.571,-55.46 -17.387,-55.485C-17.387,-54.225 -17.479,-52.99 -17.369,-51.773C-17.072,-48.505 -16.678,-45.25 -14.93,-42.351C-13.338,-39.711 -10.881,-38.259 -8.022,-37.427C-6.865,-37.09 -5.643,-36.97 -4.444,-36.785C-4.157,-36.74 -3.851,-36.828 -3.385,-36.87C-3.844,-37.657 -4.205,-38.277 -4.466,-38.725C-3.64,-37.998 -2.79,-37.015 -1.732,-36.377C-0.413,-35.581 1.077,-35.066 2.495,-34.435C2.88,-34.264 3.321,-34.176 3.654,-33.936C4.958,-33 6.155,-31.879 7.853,-31.689C8.143,-31.657 8.438,-31.685 8.935,-31.685C8.301,-32.592 7.803,-33.306 7.305,-34.02C7.362,-34.082 7.42,-34.144 7.479,-34.206C7.687,-34.02 7.93,-33.859 8.1,-33.642C9.293,-32.112 10.812,-31.049 12.575,-30.245C16.426,-28.489 20.464,-27.322 24.538,-26.252C24.762,-26.194 25.015,-26.245 25.554,-26.245C25.254,-25.246 24.99,-24.367 24.696,-23.387C25.955,-22.707 27.347,-22.888 28.815,-23.173C29.025,-22.67 28.001,-21.711 29.248,-21.626C29.888,-21.582 30.545,-21.798 31.266,-21.908C32.623,-20.255 34.13,-19.757 35.132,-20.771C36.396,-19.261 37.668,-17.764 38.9,-16.235C39.031,-16.072 39.008,-15.687 38.919,-15.459C37.647,-12.22 35.784,-9.495 32.648,-7.717C29.284,-5.81 25.817,-6.154 22.363,-7.105C19.424,-7.913 16.659,-8.028 14.062,-6.217C13.67,-5.944 13.398,-5.5 13.153,-5.067C15.032,-6.503 17.068,-6.24 19.079,-5.689C20.204,-5.381 21.289,-4.879 22.342,-4.361C24.125,-3.482 25.98,-3.49 27.881,-3.776C27.896,-3.673 27.91,-3.569 27.924,-3.466C27.079,-3.316 26.239,-3.088 25.388,-3.031C22.796,-2.855 20.152,-3.004 17.696,-1.96C16.131,-1.295 15.033,-0.114 14.836,1.631C14.583,3.867 15.206,4.981 17.283,6.15C17.08,5.706 16.973,5.433 16.836,5.176C15.366,2.418 17.116,-0.54 20.224,-0.616C22.639,-0.675 25.051,-0.823 27.447,-0.931C26.586,-0.378 25.646,0.113 24.845,0.773C24.139,1.355 23.469,2.053 22.993,2.829C22.045,4.376 22.909,5.937 24.792,6.28C25.137,6.343 25.477,6.435 25.819,6.513L27.326,6.513C27.121,6.317 26.933,6.1 26.71,5.927C25.079,4.667 24.783,1.467 27.587,0.535C28.026,0.389 28.475,0.239 28.93,0.177C31.09,-0.114 33.039,-0.831 34.781,-2.211C36.754,-3.773 38.721,-5.285 39.729,-7.713C41.082,-10.965 42.504,-14.188 43.845,-17.444C43.994,-17.809 43.949,-18.386 43.759,-18.736C42.922,-20.27 41.993,-21.752 41.109,-23.261C41.032,-23.393 40.971,-23.533 40.912,-23.676C35.304,-23.682 29.754,-23.805 25.546,-26.611C29.754,-23.805 35.304,-23.682 40.912,-23.676C40.858,-23.808 40.809,-23.941 40.752,-24.071C40.978,-23.932 41.21,-23.812 41.437,-23.675C41.523,-23.675 41.61,-23.674 41.697,-23.674C41.61,-23.674 41.523,-23.675 41.437,-23.675C46.567,-20.573 51.887,-18.092 57.437,-16.149C63.193,-14.135 69.092,-12.693 75.203,-12.455L75.432,-12.944C73.207,-14.97 70.982,-16.996 68.759,-19.021C68.857,-19.162 68.957,-19.303 69.056,-19.443C70.846,-18.615 72.631,-17.774 74.432,-16.97C74.673,-16.862 74.993,-16.933 75.276,-16.92C75.214,-17.206 75.184,-17.504 75.076,-17.771C75.017,-17.922 74.815,-18.011 74.701,-18.147C73.573,-19.479 72.45,-20.814 71.327,-22.149C71.146,-22.363 70.97,-22.581 70.792,-22.796C70.684,-22.156 70.802,-21.635 70.826,-21.109C70.838,-20.853 70.751,-20.509 70.576,-20.344C70.175,-19.966 68.362,-20.745 68.159,-21.345C66.711,-21.259 65.559,-21.953 64.447,-22.753C64.085,-23.014 63.729,-23.284 63.211,-23.668C63.556,-22.884 63.875,-22.292 64.069,-21.662C64.162,-21.362 64.131,-20.885 63.944,-20.684C63.806,-20.533 63.261,-20.585 63.012,-20.736C60.822,-22.06 58.535,-23.267 56.517,-24.819C53.771,-26.93 51.049,-29.14 49.172,-32.135C48.206,-33.677 47.415,-35.327 46.504,-36.904C46.287,-37.278 45.963,-37.694 45.588,-37.857C40.954,-39.863 36.946,-42.86 33.033,-45.949C28.123,-49.824 23.324,-53.845 18.594,-57.938C15.39,-60.709 12.651,-63.953 10.402,-67.554C8.834,-70.064 7.437,-72.683 6,-75.274C5.778,-75.675 5.759,-76.187 5.645,-76.647C5.782,-76.688 5.92,-76.73 6.057,-76.771C6.663,-75.743 7.378,-74.762 7.855,-73.677C9.35,-70.282 11.478,-67.301 13.661,-64.338C16.064,-61.076 19.15,-58.523 22.18,-55.903C24.644,-53.773 27.05,-51.572 29.572,-49.512C31.812,-47.684 34.261,-46.107 36.465,-44.239C39.306,-41.832 42.639,-40.32 45.892,-38.649C46.717,-38.226 47.141,-37.58 47.56,-36.802C48.573,-34.918 49.511,-32.95 50.812,-31.273C52.833,-28.668 55.36,-26.534 58.11,-24.691C59.385,-23.837 60.662,-22.988 61.948,-22.153C62.269,-21.945 62.632,-21.802 63.188,-21.522C61.942,-24.852 59.973,-27.647 59.229,-30.911C59.352,-30.969 59.474,-31.026 59.596,-31.084C59.907,-30.518 60.229,-29.956 60.529,-29.383C62.308,-25.978 64.372,-22.847 68.157,-21.347C68.736,-21.279 69.315,-21.211 70.111,-21.118C69.581,-23.013 69.144,-24.578 68.706,-26.144C68.79,-26.192 68.874,-26.241 68.959,-26.291C69.188,-26.103 69.472,-25.954 69.64,-25.722C70.454,-24.596 71.145,-23.366 72.055,-22.327C73.606,-20.555 75.27,-18.878 76.923,-17.198C79.906,-14.167 83.203,-11.627 87.691,-10.588C87.233,-14.806 84.739,-18.006 83.014,-21.507C81.219,-25.148 78.112,-27.698 75.138,-30.377C75.585,-30.372 75.932,-30.247 76.223,-30.042C78.552,-28.405 80.636,-26.526 82.29,-24.173" style="fill:rgb(29,29,27);fill-rule:nonzero;"/>
        </g>
        <g transform="matrix(1,0,0,1,582.148,327.64)">
            <path d="M0,22.138C-7.855,22.969 -15.32,24.741 -23.02,26.297C-23.482,24.957 -23.948,23.588 -24.427,22.224C-26.269,16.97 -28.104,11.715 -29.964,6.468C-30.606,4.652 -31.323,2.863 -31.979,1.052C-32.438,-0.213 -32.368,-0.439 -31.072,-0.782C-28.451,-1.478 -25.838,-2.305 -23.165,-2.674C-19.03,-3.245 -14.851,-3.496 -10.687,-3.845C-8.981,-3.988 -7.268,-4.041 -5.557,-4.12C-4.698,-4.159 -4.106,-3.781 -3.888,-2.924C-3.139,0.014 -2.379,2.95 -1.656,5.894C-0.421,10.924 -0.369,16.089 0.038,21.213C0.065,21.555 0.011,21.903 0,22.138" style="fill:rgb(29,29,27);fill-rule:nonzero;"/>
        </g>
        <g transform="matrix(1,0,0,1,701.719,420.842)">
            <path d="M0,10.088C0.725,10.451 1.252,10.727 1.79,10.983C2.403,11.275 2.491,11.745 2.038,12.17C1.24,12.918 0.457,13.779 -0.503,14.24C-3.701,15.777 -7.163,16.488 -10.676,16.51C-13.436,16.527 -16.199,16.04 -18.838,15.789C-18.547,16.005 -18.055,16.369 -17.562,16.734C-17.555,16.849 -17.548,16.963 -17.541,17.078C-18.562,17.251 -19.589,17.588 -20.606,17.567C-23.763,17.501 -26.867,17.046 -29.844,15.907C-30.615,15.611 -31.199,15.206 -31.545,14.416C-32.159,13.018 -32.845,11.65 -33.303,10.091C-31.967,10.964 -30.651,11.872 -29.287,12.7C-28.313,13.292 -27.297,13.824 -26.259,14.295C-25.346,14.708 -25.069,14.468 -25.191,13.501C-26.077,6.47 -28.668,0.129 -32.895,-5.552C-33.334,-6.142 -33.764,-6.74 -34.319,-7.5C-26.457,-4.023 -18.157,-2.899 -9.874,-0.957C-11.03,0.295 -12.378,0.919 -13.909,1.029C-15.433,1.138 -16.971,1.053 -18.72,1.053C-18.386,1.405 -18.171,1.762 -17.855,1.942C-15.23,3.43 -12.505,4.743 -9.448,4.914C-6.816,5.061 -4.168,4.985 -1.531,4.884C-0.834,4.857 -0.029,4.524 0.51,4.073C1.711,3.068 1.683,1.715 0.695,0.471C-0.954,-1.609 -4.008,-3.116 -8.237,-1.461C-7.998,-2.091 -7.937,-2.568 -7.677,-2.878C-6.59,-4.173 -5.166,-4.852 -3.473,-4.919C0.39,-5.074 3.702,-3.617 6.74,-1.388C8.507,-0.092 10.146,3.589 9.172,5.48C8.78,6.24 8.224,7.035 7.53,7.497C5.688,8.723 3.762,9.845 1.413,9.809C1.015,9.803 0.613,9.962 0,10.088" style="fill:rgb(29,29,27);fill-rule:nonzero;"/>
        </g>
        <g transform="matrix(1,0,0,1,586.304,359.172)">
            <path d="M0,-6.362C-0.233,-6.178 -0.57,-5.729 -0.999,-5.609C-2.913,-5.072 -4.845,-4.588 -6.787,-4.164C-9.431,-3.588 -12.104,-3.146 -14.739,-2.535C-18.105,-1.756 -21.455,-0.9 -24.792,-0.005C-26.237,0.383 -27.642,0.93 -29.05,1.446C-29.571,1.636 -29.905,1.639 -30.347,1.183C-32.623,-1.172 -32.613,-1.318 -29.525,-2.588C-26.205,-3.953 -22.703,-4.631 -19.198,-5.307C-17.346,-5.665 -15.533,-6.249 -13.673,-6.543C-11.212,-6.931 -8.723,-7.143 -6.244,-7.418C-4.649,-7.596 -3.053,-7.764 -1.454,-7.913C-0.515,-8.001 -0.037,-7.569 0,-6.362" style="fill:rgb(29,29,27);fill-rule:nonzero;"/>
        </g>
        <g transform="matrix(1,0,0,1,595.159,446.011)">
            <path d="M0,-24.922C3.05,-23.853 6.031,-22.821 9.002,-21.756C9.602,-21.542 10.389,-21.774 10.726,-20.875C11.135,-19.787 11.436,-18.769 10.952,-17.611C9.719,-14.652 8.299,-11.81 6.452,-9.168C4.702,-6.666 2.329,-5.387 -0.627,-4.977C-1.596,-4.842 -2.561,-4.612 -3.498,-4.329C-6.082,-3.551 -6.728,-2.622 -6.612,0C-8.563,-1.487 -8.174,-3.018 -5.216,-5.328C-7.105,-5.328 -8.962,-5.486 -10.779,-5.287C-12.952,-5.048 -14.369,-3.575 -14.799,-1.566C-15.563,-2.368 -15.157,-4.165 -14,-4.961C-12.317,-6.12 -10.423,-6.802 -8.405,-6.881C-3.198,-7.086 0.871,-9.658 4.43,-13.106C5.544,-14.186 6.062,-15.888 6.823,-17.321C6.923,-17.509 6.944,-17.895 6.825,-18.019C5.921,-18.964 5.3,-20.279 3.693,-20.322C3.012,-20.34 2.477,-20.688 2.325,-21.498C2.273,-21.772 1.881,-22.131 1.593,-22.187C-0.317,-22.557 -0.623,-23.06 0,-24.922" style="fill-rule:nonzero;"/>
        </g>
        <g transform="matrix(1,0,0,1,595.159,446.011)">
            <path d="M0,-24.922C3.05,-23.853 6.031,-22.821 9.002,-21.756C9.602,-21.542 10.389,-21.774 10.726,-20.875C11.135,-19.787 11.436,-18.769 10.952,-17.611C9.719,-14.652 8.299,-11.81 6.452,-9.168C4.702,-6.666 2.329,-5.387 -0.627,-4.977C-1.596,-4.842 -2.561,-4.612 -3.498,-4.329C-6.082,-3.551 -6.728,-2.622 -6.612,0C-8.563,-1.487 -8.174,-3.018 -5.216,-5.328C-7.105,-5.328 -8.962,-5.486 -10.779,-5.287C-12.952,-5.048 -14.369,-3.575 -14.799,-1.566C-15.563,-2.368 -15.157,-4.165 -14,-4.961C-12.317,-6.12 -10.423,-6.802 -8.405,-6.881C-3.198,-7.086 0.871,-9.658 4.43,-13.106C5.544,-14.186 6.062,-15.888 6.823,-17.321C6.923,-17.509 6.944,-17.895 6.825,-18.019C5.921,-18.964 5.3,-20.279 3.693,-20.322C3.012,-20.34 2.477,-20.688 2.325,-21.498C2.273,-21.772 1.881,-22.131 1.593,-22.187C-0.317,-22.557 -0.623,-23.06 0,-24.922" style="fill:rgb(29,29,27);fill-rule:nonzero;"/>
        </g>
        <g transform="matrix(1,0,0,1,562.679,371.025)">
            <path d="M0,2.002C0.924,1.795 1.658,1.742 2.286,1.455C2.742,1.246 3.333,0.752 3.366,0.345C3.407,-0.144 3.042,-0.822 2.637,-1.163C1.171,-2.399 -1.354,-1.942 -2.467,-0.351C-2.867,0.221 -2.874,0.799 -2.281,1.118C-1.527,1.524 -0.676,1.749 0,2.002M-4.592,0.311C-4.568,-1.798 -3.021,-3.625 -0.924,-3.882C0.162,-4.015 1.282,-4.082 2.365,-3.973C4.908,-3.714 6.55,-1.164 5.608,1.207C4.543,3.89 1.06,6.084 -2.052,4.431C-3.692,3.559 -4.687,2.264 -4.592,0.311" style="fill:rgb(29,29,27);fill-rule:nonzero;"/>
        </g>
        <g transform="matrix(1,0,0,1,566.701,388.859)">
            <path d="M0,-13.446C0.638,-11.599 1.288,-9.757 1.906,-7.904C2.062,-7.435 2.105,-6.931 2.21,-6.445C2.467,-5.254 2.82,-4.197 1.655,-3.069C0.907,-2.344 0.778,-0.981 0.407,0C-0.327,-4.292 -0.726,-8.798 -0.389,-13.349C-0.26,-13.382 -0.13,-13.414 0,-13.446" style="fill:rgb(29,29,27);fill-rule:nonzero;"/>
        </g>
        <g transform="matrix(1,0,0,1,568.59,400.81)">
            <path d="M0,-8.749C0.583,-8.408 1.215,-8.037 1.854,-7.661L1.854,-0.073C1.734,-0.049 1.613,-0.024 1.493,0C1.017,-1.491 0.538,-2.98 0.069,-4.474C0.018,-4.64 0.066,-4.844 -0.002,-4.999C-0.543,-6.243 -0.844,-7.488 0,-8.749" style="fill:rgb(29,29,27);fill-rule:nonzero;"/>
        </g>
        <g transform="matrix(1,0,0,1,570.453,385.706)">
            <path d="M0,6.348C-2.934,5.484 -2.712,1.628 -0.989,0C-0.653,2.158 -0.334,4.207 0,6.348" style="fill:rgb(29,29,27);fill-rule:nonzero;"/>
        </g>
        <g transform="matrix(1,0,0,1,570.378,391.925)">
            <path d="M0,-5.615C1.271,-4.092 1.804,-0.853 0.897,0C0.598,-1.877 0.305,-3.707 0,-5.615" style="fill:rgb(29,29,27);fill-rule:nonzero;"/>
        </g>
        <g transform="matrix(-0.996981,0.0776445,0.0776445,0.996981,565.937,393.116)">
            <path d="M-0.795,-3.025C-0.887,-1.962 -0.964,-1.08 -1.042,-0.198C-0.959,-0.119 -0.877,-0.039 -0.795,0.04C-0.439,-0.245 0.129,-0.472 0.23,-0.829C0.459,-1.644 0.197,-2.403 -0.795,-3.025" style="fill-rule:nonzero;"/>
        </g>
    </g>
</svg>
